<?xml version="1.0" encoding="utf-8"?>
<!-- Svg Vector Icons : http://www.onlinewebfonts.com/icon -->
<!DOCTYPE svg PUBLIC "-//W3C//DTD SVG 1.1//EN" "http://www.w3.org/Graphics/SVG/1.1/DTD/svg11.dtd">
<svg version="1.1" xmlns="http://www.w3.org/2000/svg" xmlns:xlink="http://www.w3.org/1999/xlink" x="0px" y="0px" viewBox="0 0 1000 1000" enable-background="#fff" xml:space="preserve">
<metadata> Svg Vector Icons : http://www.onlinewebfonts.com/icon </metadata>
<g><g transform="translate(0.000000,512.000000) scale(0.100000,-0.100000)"><path d="M4712.3,5016.9c-494.8-44.1-826.6-107.4-1210.1-230.1C1687.9,4203.7,397.3,2654.1,136.4,751.7c-69-502.5-38.4-1194.8,78.6-1706.9c416.2-1844.9,1866-3294.8,3711-3711c678.9-153.4,1472.9-153.4,2155.6,1.9c437.3,97.8,947.4,295.4,1329,512.1c1210.1,692.3,2071.2,1848.8,2374.2,3197c153.4,675.1,153.4,1472.9,0,2148c-450.7,2002.2-2113.4,3521.1-4140.6,3787.7C5416.2,5009.2,4875.3,5030.3,4712.3,5016.9z M6821.9,2439.3c184.1-11.5,400.8-28.8,479.5-38.4c283.8-38.4,523.6-203.3,634.8-435.4c157.3-327.9,199.5-724.9,199.5-1846.8c0-1100.8-42.2-1515.1-189.9-1825.8c-95.9-203.3-266.6-349-487.1-418.1c-423.8-132.3-3960.3-151.5-4740.8-26.8c-540.8,84.4-749.9,381.6-826.6,1167.9c-36.4,364.4-36.4,1835.4-1.9,2205.5c30.7,310.7,94,583,176.4,749.9c109.3,224.4,351,389.3,623.3,427.7c124.7,17.3,705.7,51.8,1141.1,67.1C4211.8,2479.6,6501.6,2458.5,6821.9,2439.3z"/><path d="M4213.7,118.8c0-644.4,5.8-1167.9,15.3-1164.1c166.9,92.1,1921.7,1154.5,1921.7,1164.1c0,9.6-1754.8,1072.1-1921.7,1164.1C4219.4,1286.7,4213.7,763.2,4213.7,118.8z"/></g></g>
</svg>